<?xml version="1.0" encoding="UTF-8"?>
<svg xmlns="http://www.w3.org/2000/svg" xmlns:xlink="http://www.w3.org/1999/xlink" width="20px" height="20px" viewBox="0 0 20 20" version="1.1">
<g id="surface1">
<path style=" stroke:none;fill-rule:nonzero;fill:rgb(11.372549%,11.372549%,10.588235%);fill-opacity:1;" d="M 14.675781 9.105469 L 13.863281 10.242188 L 15.734375 12.980469 L 15.734375 9.105469 Z M 9.074219 9.335938 L 9.074219 12.847656 L 10.839844 10.222656 L 10.011719 9.136719 C 10.691406 8.957031 11.324219 8.648438 11.878906 8.222656 L 12.414062 8.898438 L 13.425781 7.367188 L 19.183594 7.367188 L 19.183594 9.105469 L 17.890625 9.105469 L 17.890625 13.34375 L 13.425781 13.34375 L 12.285156 11.640625 L 11.097656 13.34375 L 6.902344 13.34375 L 6.902344 12.179688 C 6.601562 12.996094 5.648438 13.507812 3.761719 13.507812 C 0.960938 13.507812 0.820312 12.515625 0.777344 11.382812 L 2.992188 11.382812 C 3 11.722656 3.058594 11.964844 3.199219 12.128906 C 3.359375 12.300781 3.585938 12.390625 3.820312 12.375 C 4.273438 12.375 4.757812 12.25 4.757812 11.757812 C 4.757812 11.65625 4.722656 11.558594 4.664062 11.480469 C 4.367188 11.085938 1.902344 10.796875 1.207031 10.078125 C 0.929688 9.792969 0.84375 9.363281 0.84375 9.011719 C 0.84375 7.679688 1.878906 7.074219 3.945312 7.074219 C 6.136719 7.074219 6.660156 7.839844 6.6875 9.101562 L 4.554688 9.101562 C 4.539062 8.765625 4.4375 8.496094 4.292969 8.375 C 4.160156 8.253906 3.980469 8.191406 3.804688 8.207031 C 3.347656 8.214844 3.105469 8.410156 3.105469 8.71875 C 3.101562 8.820312 3.136719 8.917969 3.195312 8.996094 C 3.53125 9.378906 5.917969 9.652344 6.605469 10.382812 C 6.734375 10.519531 6.835938 10.679688 6.902344 10.855469 L 6.902344 9.445312 C 7.628906 9.480469 8.355469 9.441406 9.074219 9.335938 Z M 9.074219 9.335938 "/>
<path style=" stroke:none;fill-rule:nonzero;fill:rgb(93.725491%,49.019608%,0%);fill-opacity:1;" d="M 6.902344 7.363281 C 9.113281 7.527344 10.359375 6.898438 10.785156 6.078125 L 13.039062 6.078125 C 12.363281 8.042969 10.246094 9.273438 6.898438 9.105469 L 6.898438 7.363281 Z M 6.902344 7.363281 "/>
</g>
</svg>
